<mxfile host="app.diagrams.net" modified="2024-05-07T15:59:07.327Z" agent="Mozilla/5.0 (Windows NT 10.0; Win64; x64; rv:125.0) Gecko/20100101 Firefox/125.0" version="24.3.1" etag="3eY3SQ50aTn32EIEKQuy" type="github">
  <diagram name="PÃ¡gina-1" id="s1hpsxXxbRujhxVoiD6D">
    <mxGraphModel>
      <root>
        <mxCell id="0" />
        <mxCell id="1" parent="0" />
      </root>
    </mxGraphModel>
  </diagram>
</mxfile>
